<svg width="10" height="36" viewBox="0 0 10 36" fill="none" xmlns="http://www.w3.org/2000/svg">
<path d="M5.03353 8.31657C6.87448 8.31657 8.36686 6.82418 8.36686 4.98324C8.36686 3.14229 6.87448 1.6499 5.03353 1.6499C3.19258 1.6499 1.7002 3.14229 1.7002 4.98324C1.7002 6.82418 3.19258 8.31657 5.03353 8.31657Z" stroke="#151515" stroke-width="2.5" stroke-linecap="round" stroke-linejoin="bevel"/>
<path d="M4.96688 21.3332C6.80783 21.3332 8.30021 19.8408 8.30021 17.9998C8.30021 16.1589 6.80783 14.6665 4.96688 14.6665C3.12593 14.6665 1.63354 16.1589 1.63354 17.9998C1.63354 19.8408 3.12593 21.3332 4.96688 21.3332Z" stroke="#151515" stroke-width="2.5" stroke-linecap="round" stroke-linejoin="bevel"/>
<path d="M5.03353 34.35C6.87448 34.35 8.36686 32.8576 8.36686 31.0167C8.36686 29.1757 6.87448 27.6833 5.03353 27.6833C3.19258 27.6833 1.7002 29.1757 1.7002 31.0167C1.7002 32.8576 3.19258 34.35 5.03353 34.35Z" stroke="#151515" stroke-width="2.5" stroke-linecap="round" stroke-linejoin="bevel"/>
</svg>
